Genre:Thriller
Language:English  http://www.imdb.com/title/tt1320291/
Source:1080p BluRay x264-LEVERAGE
Subtitles:Romana


Format : MPEG-4
Format profile : Base Media
Codec ID : isom
File size : 1.72 GiB
Duration : 1h 27mn
Overall bit rate : 2 802 Kbps


Video
Format settings, CABAC : Yes
Format settings, ReFrames : 3 frames
Codec ID : avc1
Codec ID/Info : Advanced Video Coding
Duration : 1h 27mn
Bit rate mode : Variable
Bit rate : 2 395 Kbps
Maximum bit rate : 18.0 Mbps
Width : 1 280 pixels
Height : 544 pixels
Display aspect ratio : 2.35:1
Frame rate mode : Constant
Frame rate : 23.976 fps
Color space : YUV
Chroma subsampling : 4:2:0
Bit depth : 8 bits
Scan type : Progressive
Bits/(Pixel*Frame) : 0.143
Stream size : 1.41 GiB (82%)
Writing library : x264 


Audio
ID : 2
Format : AAC
Format/Info : Advanced Audio Codec
Format version : Version 4
Format profile : LC
Format settings, SBR : No
Codec ID : 40
Duration : 1h 27mn
Bit rate mode : Variable
Bit rate : 502 Kbps
Maximum bit rate : 642 Kbps
Channel(s) : 6 channels
Channel positions : Front: L C R, Side: L R, LFE
Sampling rate : 48.0 KHz
Stream size : 316 MiB (18%)



Plot:
A great white shark hunts the crew of a capsized sailboat along the Great Barrier Reef
 
http://www.postimg.com/29000/28415.jpg 
http://www.postimg.com/29000/28412.jpg 
http://www.postimg.com/29000/28412.jpg 
http://www.postimg.com/29000/28417.jpg 
http://www.postimg.com/29000/28416.jpg